<?xml version="1.0" encoding="UTF-8"?>
<!DOCTYPE svg PUBLIC "-//W3C//DTD SVG 1.1//EN" "http://www.w3.org/Graphics/SVG/1.1/DTD/svg11.dtd">
<!-- Creator: CorelDRAW 2019 -->
<svg xmlns="http://www.w3.org/2000/svg" xml:space="preserve" width="74.6129mm" height="15.1258mm" version="1.1" style="shape-rendering:geometricPrecision; text-rendering:geometricPrecision; image-rendering:optimizeQuality; fill-rule:evenodd; clip-rule:evenodd"
viewBox="0 0 9918.34 2010.68"
 xmlns:xlink="http://www.w3.org/1999/xlink"
 xmlns:xodm="http://www.corel.com/coreldraw/odm/2003">
 <defs>
  <style type="text/css">
   <![CDATA[
    .fil0 {fill:#206BC4}
    .fil1 {fill:#4A4A4A}
   ]]>
  </style>
 </defs>
 <g id="Слой_x0020_1">
  <metadata id="CorelCorpID_0Corel-Layer"/>
  <polygon class="fil0" points="3394.04,398.61 3821.97,398.61 3821.97,1963.72 3394.04,1963.72 3394.04,1465.47 427.93,1465.47 427.93,1963.72 -0,1963.72 -0,0 427.93,0 427.93,1037.54 3394.04,1037.54 "/>
  <polygon class="fil1" points="7122.21,398.61 7122.21,826.54 6659.13,826.54 6659.13,1963.72 6231.2,1963.72 6231.2,826.54 5768.13,826.54 5768.13,398.61 6231.2,398.61 6659.13,398.61 "/>
  <polygon class="fil1" points="7344.98,398.61 7772.91,398.61 8570.1,398.61 8570.1,826.54 7772.91,826.54 7772.91,978.87 8405.97,978.87 8405.97,1359.99 7772.91,1359.99 7772.91,1535.79 8570.1,1535.79 8570.1,1963.72 7772.91,1963.72 7344.98,1963.72 7344.96,1963.72 7344.96,1535.79 7344.98,1535.79 7344.98,1359.99 7344.96,1359.99 7344.96,978.87 7344.98,978.87 7344.98,826.54 7344.96,826.54 7344.96,398.61 "/>
  <polygon class="fil1" points="9918.34,1535.79 9918.34,1963.72 9244.25,1963.72 8816.32,1963.72 8816.32,1535.79 8816.32,398.61 9244.25,398.61 9244.25,1535.79 "/>
  <path class="fil1" d="M4853.67 721.07c252.52,0 457.23,204.71 457.23,457.23 0,252.52 -204.71,457.23 -457.23,457.23 -252.52,0 -457.23,-204.71 -457.23,-457.23 0,-252.52 204.71,-457.23 457.23,-457.23zm0 -375.16c-459.7,0 -832.39,372.68 -832.39,832.39 0,459.7 372.68,832.39 832.39,832.39 459.7,0 832.39,-372.68 832.39,-832.39 0,-459.7 -372.68,-832.39 -832.39,-832.39z"/>
  <path class="fil0" d="M586.1 902.79l911.52 0c-45.91,-202.24 -339.2,-316.55 -551.01,-316.55 -159.92,0 -404.47,26.37 -360.51,316.55z"/>
 </g>
</svg>
